<svg width="63" height="51" viewBox="0 0 63 51" fill="none" xmlns="http://www.w3.org/2000/svg">
<g clip-path="url(#clip0)">
<path fill-rule="evenodd" clip-rule="evenodd" d="M0 0.543304V49.573H59.1086V39.0666H54.8866V46.0709H4.22204V4.04543H42.2205V14.5518H54.8866V21.5567H59.1086V11.0497L46.4425 0.543304H0Z" fill="#5ED7C6"/>
<mask id="mask0" mask-type="alpha" maskUnits="userSpaceOnUse" x="9" y="17" width="59" height="21">
<path d="M9.49463 17.5696H67.2715V37.1815H9.49463V17.5696Z" fill="white"/>
</mask>
<g mask="url(#mask0)">
<path d="M22.9336 34.943C22.5 35.5641 21.8936 36.0299 21.1143 36.3404C20.3408 36.6451 19.4385 36.7975 18.4072 36.7975C17.3643 36.7975 16.4385 36.5543 15.6299 36.068C14.8213 35.5758 14.1943 34.8785 13.749 33.9762C13.3096 33.0738 13.084 32.0279 13.0723 30.8385V29.7223C13.0723 27.7945 13.5205 26.3004 14.417 25.2398C15.3193 24.1793 16.585 23.649 18.2139 23.649C19.5498 23.649 20.625 23.9918 21.4395 24.6773C22.2539 25.357 22.752 26.3238 22.9336 27.5777H21.2461C20.9297 25.8844 19.9219 25.0377 18.2227 25.0377C17.0918 25.0377 16.2334 25.4361 15.6475 26.233C15.0674 27.024 14.7744 28.1725 14.7686 29.6783V30.7242C14.7686 32.1598 15.0967 33.3023 15.7529 34.1519C16.4092 34.9957 17.2969 35.4176 18.416 35.4176C19.0488 35.4176 19.6025 35.3473 20.0771 35.2066C20.5518 35.066 20.9443 34.8287 21.2549 34.4947V31.6207H18.293V30.2496H22.9336V34.943ZM27.5654 36.6217H25.8779V23.8248H27.5654V36.6217ZM37.7168 30.9703H32.3467V36.6217H30.6592V23.8248H38.5869V25.2135H32.3467V29.5904H37.7168V30.9703ZM50.4521 30.6363C50.4521 31.8902 50.2412 32.9859 49.8193 33.9234C49.3975 34.8551 48.7998 35.567 48.0264 36.0592C47.2529 36.5514 46.3506 36.7975 45.3193 36.7975C44.3115 36.7975 43.418 36.5514 42.6387 36.0592C41.8594 35.5611 41.2529 34.8551 40.8193 33.941C40.3916 33.0211 40.1719 31.9576 40.1602 30.7506V29.8277C40.1602 28.5973 40.374 27.5103 40.8018 26.567C41.2295 25.6236 41.833 24.9029 42.6123 24.4049C43.3975 23.901 44.2939 23.649 45.3018 23.649C46.3271 23.649 47.2295 23.898 48.0088 24.3961C48.7939 24.8883 49.3975 25.606 49.8193 26.5494C50.2412 27.4869 50.4521 28.5797 50.4521 29.8277V30.6363ZM48.7734 29.8102C48.7734 28.2926 48.4688 27.1295 47.8594 26.3209C47.25 25.5064 46.3975 25.0992 45.3018 25.0992C44.2354 25.0992 43.3945 25.5064 42.7793 26.3209C42.1699 27.1295 41.8564 28.2545 41.8389 29.6959V30.6363C41.8389 32.107 42.1465 33.2643 42.7617 34.108C43.3828 34.9459 44.2354 35.3648 45.3193 35.3648C46.4092 35.3648 47.2529 34.9693 47.8506 34.1783C48.4482 33.3814 48.7559 32.2418 48.7734 30.7594V29.8102ZM56.7539 30.9176C55.3066 30.5016 54.252 29.9918 53.5898 29.3883C52.9336 28.7789 52.6055 28.0289 52.6055 27.1383C52.6055 26.1305 53.0068 25.2984 53.8096 24.6422C54.6182 23.9801 55.667 23.649 56.9561 23.649C57.835 23.649 58.6172 23.8189 59.3027 24.1588C59.9941 24.4986 60.5273 24.9674 60.9023 25.565C61.2832 26.1627 61.4736 26.816 61.4736 27.525H59.7773C59.7773 26.7516 59.5312 26.1451 59.0391 25.7057C58.5469 25.2603 57.8525 25.0377 56.9561 25.0377C56.124 25.0377 55.4736 25.2223 55.0049 25.5914C54.542 25.9547 54.3105 26.4615 54.3105 27.1119C54.3105 27.6334 54.5303 28.0758 54.9697 28.4391C55.415 28.7965 56.168 29.1246 57.2285 29.4234C58.2949 29.7223 59.127 30.0533 59.7246 30.4166C60.3281 30.774 60.7734 31.193 61.0605 31.6734C61.3535 32.1539 61.5 32.7193 61.5 33.3697C61.5 34.4068 61.0957 35.2389 60.2871 35.8658C59.4785 36.4869 58.3975 36.7975 57.0439 36.7975C56.165 36.7975 55.3447 36.6305 54.583 36.2965C53.8213 35.9566 53.2324 35.4937 52.8164 34.9078C52.4062 34.3219 52.2012 33.6568 52.2012 32.9127H53.8975C53.8975 33.6861 54.1816 34.2984 54.75 34.7496C55.3242 35.1949 56.0889 35.4176 57.0439 35.4176C57.9346 35.4176 58.6172 35.2359 59.0918 34.8727C59.5664 34.5094 59.8037 34.0143 59.8037 33.3873C59.8037 32.7603 59.584 32.2769 59.1445 31.9371C58.7051 31.5914 57.9082 31.2516 56.7539 30.9176Z" fill="white"/>
</g>
</g>
<defs>
<clipPath id="clip0">
<rect width="63" height="49.7691" fill="white" transform="translate(0 0.543518)"/>
</clipPath>
</defs>
</svg>
